<svg width="36" height="36" viewBox="0 0 36 36" fill="none" xmlns="http://www.w3.org/2000/svg">
<g clip-path="url(#clip0)">
<path d="M27.3486 16.0291C28.1037 16.0291 28.7158 15.4169 28.7158 14.6619C28.7158 13.9068 28.1037 13.2947 27.3486 13.2947C26.5936 13.2947 25.9814 13.9068 25.9814 14.6619C25.9814 15.4169 26.5936 16.0291 27.3486 16.0291Z" fill="white"/>
<path d="M30.4932 3.04077H28.7158V1.67358C28.7158 0.918486 28.1037 0.306396 27.3486 0.306396C26.5935 0.306396 25.9814 0.918486 25.9814 1.67358V3.04077H19.7607V1.67358C19.7607 0.918486 19.1487 0.306396 18.3936 0.306396C17.6385 0.306396 17.0264 0.918486 17.0264 1.67358V3.04077H10.874V1.67358C10.874 0.918486 10.2619 0.306396 9.50684 0.306396C8.75174 0.306396 8.13965 0.918486 8.13965 1.67358V3.04077H6.43066C3.4152 3.04077 0.961914 5.49405 0.961914 8.50952V29.8376C0.961914 32.8531 3.4152 35.3064 6.43066 35.3064H16.8896C17.6447 35.3064 18.2568 34.6943 18.2568 33.9392C18.2568 33.1841 17.6447 32.572 16.8896 32.572H6.43066C4.92293 32.572 3.69629 31.3454 3.69629 29.8376V8.50952C3.69629 7.00179 4.92293 5.77515 6.43066 5.77515H8.13965V7.14233C8.13965 7.89743 8.75174 8.50952 9.50684 8.50952C10.2619 8.50952 10.874 7.89743 10.874 7.14233V5.77515H17.0264V7.14233C17.0264 7.89743 17.6385 8.50952 18.3936 8.50952C19.1487 8.50952 19.7607 7.89743 19.7607 7.14233V5.77515H25.9814V7.14233C25.9814 7.89743 26.5935 8.50952 27.3486 8.50952C28.1037 8.50952 28.7158 7.89743 28.7158 7.14233V5.77515H30.4932C32.0009 5.77515 33.2275 7.00179 33.2275 8.50952V16.3025C33.2275 17.0576 33.8396 17.6697 34.5947 17.6697C35.3498 17.6697 35.9619 17.0576 35.9619 16.3025V8.50952C35.9619 5.49405 33.5086 3.04077 30.4932 3.04077Z" fill="white"/>
<path d="M27.6904 18.7634C23.1295 18.7634 19.4189 22.474 19.4189 27.0349C19.4189 31.5958 23.1295 35.3064 27.6904 35.3064C32.2514 35.3064 35.9619 31.5958 35.9619 27.0349C35.9619 22.474 32.2514 18.7634 27.6904 18.7634ZM27.6904 32.572C24.6373 32.572 22.1533 30.0881 22.1533 27.0349C22.1533 23.9817 24.6373 21.4978 27.6904 21.4978C30.7436 21.4978 33.2275 23.9817 33.2275 27.0349C33.2275 30.0881 30.7436 32.572 27.6904 32.572Z" fill="white"/>
<path d="M29.6729 25.6677H29.0576V24.2322C29.0576 23.4771 28.4455 22.865 27.6904 22.865C26.9353 22.865 26.3232 23.4771 26.3232 24.2322V27.0349C26.3232 27.79 26.9353 28.4021 27.6904 28.4021H29.6729C30.4279 28.4021 31.04 27.79 31.04 27.0349C31.04 26.2798 30.4279 25.6677 29.6729 25.6677Z" fill="white"/>
<path d="M21.4014 16.0291C22.1564 16.0291 22.7686 15.4169 22.7686 14.6619C22.7686 13.9068 22.1564 13.2947 21.4014 13.2947C20.6463 13.2947 20.0342 13.9068 20.0342 14.6619C20.0342 15.4169 20.6463 16.0291 21.4014 16.0291Z" fill="white"/>
<path d="M15.4541 21.9763C16.2092 21.9763 16.8213 21.3642 16.8213 20.6091C16.8213 19.8541 16.2092 19.2419 15.4541 19.2419C14.699 19.2419 14.0869 19.8541 14.0869 20.6091C14.0869 21.3642 14.699 21.9763 15.4541 21.9763Z" fill="white"/>
<path d="M9.50684 16.0291C10.2619 16.0291 10.874 15.4169 10.874 14.6619C10.874 13.9068 10.2619 13.2947 9.50684 13.2947C8.75176 13.2947 8.13965 13.9068 8.13965 14.6619C8.13965 15.4169 8.75176 16.0291 9.50684 16.0291Z" fill="white"/>
<path d="M9.50684 21.9763C10.2619 21.9763 10.874 21.3642 10.874 20.6091C10.874 19.8541 10.2619 19.2419 9.50684 19.2419C8.75176 19.2419 8.13965 19.8541 8.13965 20.6091C8.13965 21.3642 8.75176 21.9763 9.50684 21.9763Z" fill="white"/>
<path d="M9.50684 27.9236C10.2619 27.9236 10.874 27.3115 10.874 26.5564C10.874 25.8013 10.2619 25.1892 9.50684 25.1892C8.75176 25.1892 8.13965 25.8013 8.13965 26.5564C8.13965 27.3115 8.75176 27.9236 9.50684 27.9236Z" fill="white"/>
<path d="M15.4541 27.9236C16.2092 27.9236 16.8213 27.3115 16.8213 26.5564C16.8213 25.8013 16.2092 25.1892 15.4541 25.1892C14.699 25.1892 14.0869 25.8013 14.0869 26.5564C14.0869 27.3115 14.699 27.9236 15.4541 27.9236Z" fill="white"/>
<path d="M15.4541 16.0291C16.2092 16.0291 16.8213 15.4169 16.8213 14.6619C16.8213 13.9068 16.2092 13.2947 15.4541 13.2947C14.699 13.2947 14.0869 13.9068 14.0869 14.6619C14.0869 15.4169 14.699 16.0291 15.4541 16.0291Z" fill="white"/>
</g>
<defs>
<clipPath id="clip0">
<rect width="35" height="35" fill="white" transform="translate(0.961914 0.306396)"/>
</clipPath>
</defs>
</svg>
