<svg width="38" height="38" viewBox="0 0 38 38" fill="" xmlns="http://www.w3.org/2000/svg">
<g clip-path="url(#clip0)">
<path d="M21.7195 19.9293C21.6825 19.9847 21.6825 20.0401 21.6641 20.1139C21.6456 20.354 21.8303 20.5756 22.0703 20.594C22.3103 20.6125 22.5319 20.4278 22.5504 20.1878C22.5504 20.1324 22.5504 20.077 22.5689 19.9847C22.5689 19.8924 22.5689 19.837 22.5689 19.7816C22.5689 19.2461 22.4765 18.7291 22.3103 18.2305C22.0888 17.5843 21.701 17.0119 21.2394 16.5318C20.667 15.9594 19.9653 15.5531 19.1713 15.3316C18.802 15.2392 18.3958 15.1838 18.008 15.1838C17.8788 15.1838 17.7495 15.1838 17.6018 15.2023C17.4726 15.2208 17.3433 15.2392 17.2141 15.2577C16.974 15.2946 16.8078 15.5347 16.8632 15.7562C16.9002 15.9963 17.1402 16.1625 17.3618 16.1071C17.4726 16.0886 17.5649 16.0701 17.6757 16.0701C17.6941 16.0701 17.7126 16.0701 17.7311 16.0701C17.8234 16.0701 17.9157 16.0517 18.008 16.0517C19.0236 16.0517 19.9653 16.4579 20.63 17.1411C21.2948 17.8058 21.701 18.7106 21.7195 19.7262V19.7631C21.7195 19.837 21.7195 19.8924 21.7195 19.9293Z" fill=""/>
<path d="M24.1571 20.3355C24.1386 20.5756 24.3233 20.7971 24.5633 20.8156C24.8034 20.8341 25.0249 20.6494 25.0434 20.4094C25.0619 20.2063 25.0619 20.0031 25.0619 19.8C25.0619 19.3938 25.0249 19.006 24.9696 18.6183C24.7295 17.1411 24.0094 15.8116 22.9938 14.7961C21.8305 13.6328 20.2795 12.8757 18.5623 12.7465C18.3776 12.728 18.1745 12.728 17.9899 12.728C17.7868 12.728 17.5836 12.728 17.3805 12.7465C17.1774 12.765 16.9743 12.7834 16.7712 12.8204C16.5312 12.8573 16.365 13.0973 16.4204 13.3189C16.4573 13.5589 16.6973 13.7251 16.9189 13.6697C17.0482 13.6513 17.159 13.6328 17.2882 13.6143C17.3436 13.6143 17.399 13.5959 17.4544 13.5959C17.639 13.5774 17.8237 13.5774 17.9899 13.5774C18.6177 13.5774 19.2085 13.6697 19.781 13.8359C20.778 14.1313 21.6644 14.6668 22.3845 15.387C22.9754 15.9778 23.4554 16.698 23.7693 17.4735C24.0463 18.1751 24.2125 18.9507 24.2125 19.7631C24.2125 19.8185 24.2125 19.8924 24.2125 19.9478C24.1756 20.0955 24.1571 20.2063 24.1571 20.3355Z" fill=""/>
<path d="M24.7846 13.0235C23.0305 11.2693 20.63 10.1984 17.9711 10.1984C17.6941 10.1984 17.4172 10.2168 17.1402 10.2353C16.8632 10.2538 16.5863 10.2907 16.3093 10.3461C16.0692 10.383 15.9031 10.6231 15.9584 10.8446C15.9954 11.0847 16.2354 11.2509 16.457 11.1955C16.5863 11.177 16.697 11.1585 16.8263 11.1401C16.9555 11.1216 17.0848 11.1031 17.2141 11.1031C17.4726 11.0847 17.7126 11.0662 17.9711 11.0662C20.3715 11.0662 22.5504 12.0448 24.1383 13.6143C25.7078 15.1838 26.6865 17.3627 26.6865 19.7816C26.6865 19.9108 26.6865 20.0585 26.6865 20.1878C26.6865 20.2986 26.668 20.4094 26.668 20.5386C26.6495 20.7787 26.8342 21.0002 27.0742 21.0187C27.3143 21.0372 27.5359 20.8525 27.5543 20.6125C27.5728 20.3355 27.5912 20.0585 27.5912 19.8C27.5912 17.1596 26.5203 14.7592 24.7846 13.0235Z" fill=""/>
<path d="M26.9081 24.213L23.6399 22.4589C22.5504 21.868 22.5135 22.2558 21.3687 23.4744C21.0917 23.7699 20.5747 24.5454 19.9654 24.3977C18.6913 24.0838 16.3094 22.2188 15.5338 21.3695C15.1645 20.9632 13.5766 19.0244 13.5581 18.3966C13.5212 17.4365 15.6262 16.9564 14.943 15.1284L13.4842 11.8601C12.1179 8.7211 8.29565 13.7435 8.60955 16.0885C9.422 21.868 19.5592 31.2112 25.2094 28.1276C26.465 27.4259 28.1637 24.9701 26.9081 24.213Z" fill=""/>
</g>
<path fill-rule="evenodd" clip-rule="evenodd" d="M19.0913 36.9674C28.7563 36.9674 36.5913 29.1324 36.5913 19.4674C36.5913 9.80242 28.7563 1.96741 19.0913 1.96741C9.42633 1.96741 1.59131 9.80242 1.59131 19.4674C1.59131 29.1324 9.42633 36.9674 19.0913 36.9674ZM19.0913 37.9674C29.3086 37.9674 37.5913 29.6847 37.5913 19.4674C37.5913 9.25014 29.3086 0.967407 19.0913 0.967407C8.87404 0.967407 0.591309 9.25014 0.591309 19.4674C0.591309 29.6847 8.87404 37.9674 19.0913 37.9674Z" fill=""/>
<defs>
<clipPath id="clip0">
<rect width="19" height="19" fill="" transform="translate(8.59131 9.96741)"/>
</clipPath>
</defs>
</svg>
