<svg width="27" height="27" viewBox="0 0 27 27" fill="" xmlns="http://www.w3.org/2000/svg">
<g clip-path="url(#clip0)">
<path d="M0.963818 14.457C0.763818 14.257 0.663818 13.957 0.663818 13.757C0.663818 13.557 0.763818 13.257 0.963818 13.057L2.36382 11.657C2.76382 11.257 3.36382 11.257 3.76382 11.657L3.86382 11.757L9.36382 17.657C9.56382 17.857 9.86382 17.857 10.0638 17.657L23.4638 3.75703H23.5638C23.9638 3.35703 24.5638 3.35703 24.9638 3.75703L26.3638 5.15703C26.7638 5.55703 26.7638 6.15703 26.3638 6.55703L10.3638 23.157C10.1638 23.357 9.96382 23.457 9.66382 23.457C9.36382 23.457 9.16382 23.357 8.96382 23.157L1.16382 14.757L0.963818 14.457Z" fill=""/>
</g>
<defs>
<clipPath id="clip0">
<rect width="26" height="26" fill="" transform="translate(0.663818 0.457031)"/>
</clipPath>
</defs>
</svg>
