<svg width="38" height="38" viewBox="0 0 38 38" fill="" xmlns="http://www.w3.org/2000/svg">
<path fill-rule="evenodd" clip-rule="evenodd" d="M19.2354 36.9674C28.9003 36.9674 36.7354 29.1324 36.7354 19.4674C36.7354 9.80242 28.9003 1.96741 19.2354 1.96741C9.57037 1.96741 1.73535 9.80242 1.73535 19.4674C1.73535 29.1324 9.57037 36.9674 19.2354 36.9674ZM19.2354 37.9674C29.4526 37.9674 37.7354 29.6847 37.7354 19.4674C37.7354 9.25014 29.4526 0.967407 19.2354 0.967407C9.01808 0.967407 0.735352 9.25014 0.735352 19.4674C0.735352 29.6847 9.01808 37.9674 19.2354 37.9674Z" fill=""/>
<g clip-path="url(#clip0)">
<path d="M23.5922 10.9674H14.8785C12.0425 10.9674 9.73535 13.2746 9.73535 16.1105V24.8244C9.73535 27.6602 12.0425 29.9674 14.8785 29.9674H23.5923C26.4282 29.9674 28.7353 27.6602 28.7353 24.8244V16.1105C28.7353 13.2746 26.4282 10.9674 23.5922 10.9674V10.9674ZM19.2353 25.6625C16.3707 25.6625 14.0402 23.3321 14.0402 20.4674C14.0402 17.6027 16.3707 15.2722 19.2353 15.2722C22.1 15.2722 24.4305 17.6027 24.4305 20.4674C24.4305 23.3321 22.1 25.6625 19.2353 25.6625ZM24.5547 16.4974C23.7082 16.4974 23.0196 15.8089 23.0196 14.9623C23.0196 14.1158 23.7082 13.4271 24.5547 13.4271C25.4013 13.4271 26.09 14.1158 26.09 14.9623C26.09 15.8089 25.4013 16.4974 24.5547 16.4974Z" fill=""/>
<path d="M19.2351 16.3861C16.9848 16.3861 15.1538 18.2169 15.1538 20.4674C15.1538 22.7177 16.9848 24.5487 19.2351 24.5487C21.4856 24.5487 23.3164 22.7177 23.3164 20.4674C23.3164 18.2169 21.4856 16.3861 19.2351 16.3861Z" fill=""/>
<path d="M24.5545 25.5513C24.3223 25.5513 24.1333 25.7403 24.1333 25.9725C24.1333 26.2047 24.3223 26.3938 24.5545 26.3938C24.7869 26.3938 24.9759 26.2049 24.9759 25.9725C24.9759 25.7401 24.7869 25.5513 24.5545 25.5513Z" fill=""/>
</g>
<defs>
<clipPath id="clip0">
<rect width="19" height="19" fill="" transform="matrix(1 0 0 -1 9.73535 29.9674)"/>
</clipPath>
</defs>
</svg>
