<svg width="38" height="38" viewBox="0 0 38 38" fill="" xmlns="http://www.w3.org/2000/svg">
<path d="M19.2354 10.0953C15.3787 10.0953 12.2407 13.2333 12.2407 17.0904C12.2407 18.0964 12.4466 19.057 12.8525 19.9456C14.6013 23.7725 17.9544 27.813 18.9406 28.96C19.0145 29.0458 19.1222 29.0951 19.2356 29.0951C19.3489 29.0951 19.4567 29.0458 19.5305 28.96C20.5164 27.8132 23.8694 23.7729 25.6189 19.9456C26.0249 19.057 26.2306 18.0964 26.2306 17.0904C26.2302 13.2333 23.0922 10.0953 19.2354 10.0953ZM19.2354 20.7236C17.232 20.7236 15.6019 19.0936 15.6019 17.0902C15.6019 15.0866 17.232 13.4565 19.2354 13.4565C21.2388 13.4565 22.8688 15.0866 22.8688 17.0902C22.869 19.0936 21.239 20.7236 19.2354 20.7236Z" fill=""/>
<path fill-rule="evenodd" clip-rule="evenodd" d="M19.2354 36.9674C28.9003 36.9674 36.7354 29.1324 36.7354 19.4674C36.7354 9.80242 28.9003 1.96741 19.2354 1.96741C9.57037 1.96741 1.73535 9.80242 1.73535 19.4674C1.73535 29.1324 9.57037 36.9674 19.2354 36.9674ZM19.2354 37.9674C29.4526 37.9674 37.7354 29.6847 37.7354 19.4674C37.7354 9.25014 29.4526 0.967407 19.2354 0.967407C9.01808 0.967407 0.735352 9.25014 0.735352 19.4674C0.735352 29.6847 9.01808 37.9674 19.2354 37.9674Z" fill=""/>
</svg>
