<svg width="49" height="49" viewBox="0 0 49 49" fill="" xmlns="http://www.w3.org/2000/svg">
<g clip-path="url(#clip0)">
<path d="M14.5436 35.5307C14.9735 35.9157 15.6341 35.8782 16.017 35.4493C18.1937 33.017 21.3325 31.6229 24.6309 31.6229C27.9283 31.6229 31.0682 33.017 33.2449 35.4493C33.6299 35.8782 34.2883 35.9157 34.7182 35.5307C35.1482 35.1467 35.1836 34.4872 34.7996 34.0573C32.2275 31.1836 28.521 29.5359 24.6309 29.5359C20.7398 29.5359 17.0334 31.1846 14.4622 34.0573C14.0782 34.4872 14.1148 35.1467 14.5436 35.5307Z" fill=""/>
<path d="M24.6313 0.318604C11.398 0.318604 0.631348 11.0852 0.631348 24.3186C0.631348 37.552 11.398 48.3186 24.6313 48.3186C37.8647 48.3186 48.6313 37.552 48.6313 24.3186C48.6313 11.0852 37.8647 0.318604 24.6313 0.318604ZM24.6313 46.2316C12.5479 46.2316 2.7183 36.4021 2.7183 24.3186C2.7183 12.2351 12.5479 2.40556 24.6313 2.40556C36.7148 2.40556 46.5444 12.2351 46.5444 24.3186C46.5444 36.4021 36.7148 46.2316 24.6313 46.2316Z" fill=""/>
<path d="M32.9792 17.0143C30.1023 17.0143 27.7618 19.3548 27.7618 22.2316C27.7618 22.8076 28.2293 23.2751 28.8053 23.2751C29.3813 23.2751 29.8487 22.8076 29.8487 22.2316C29.8487 20.5057 31.2533 19.1012 32.9792 19.1012C34.7051 19.1012 36.1096 20.5057 36.1096 22.2316C36.1096 22.8076 36.5771 23.2751 37.1531 23.2751C37.7291 23.2751 38.1966 22.8076 38.1966 22.2316C38.1966 19.3548 35.856 17.0143 32.9792 17.0143Z" fill=""/>
<path d="M19.414 22.2316C19.414 22.8076 19.8814 23.2751 20.4574 23.2751C21.0334 23.2751 21.5009 22.8076 21.5009 22.2316C21.5009 19.3548 19.1604 17.0143 16.2835 17.0143C13.4067 17.0143 11.0661 19.3548 11.0661 22.2316C11.0661 22.8076 11.5336 23.2751 12.1096 23.2751C12.6856 23.2751 13.1531 22.8076 13.1531 22.2316C13.1531 20.5057 14.5576 19.1012 16.2835 19.1012C18.0094 19.1012 19.414 20.5057 19.414 22.2316Z" fill=""/>
</g>
<defs>
<clipPath id="clip0">
<rect width="48" height="48" fill="" transform="translate(0.631348 0.318604)"/>
</clipPath>
</defs>
</svg>
