<svg width="49" height="49" viewBox="0 0 49 49" fill="" xmlns="http://www.w3.org/2000/svg">
<g clip-path="url(#clip0)">
<path d="M34.2714 29.8021C33.8415 29.417 33.1809 29.4546 32.798 29.8835C30.6213 32.3158 27.4825 33.7099 24.1841 33.7099C20.8867 33.7099 17.7468 32.3158 15.5701 29.8835C15.1851 29.4546 14.5267 29.417 14.0968 29.8021C13.6668 30.1861 13.6314 30.8455 14.0154 31.2755C16.5875 34.1492 20.294 35.7969 24.1841 35.7969C28.0752 35.7969 31.7816 34.1482 34.3528 31.2755C34.7368 30.8455 34.7002 30.1861 34.2714 29.8021Z" fill=""/>
<path d="M24.1841 0.318604C10.9507 0.318604 0.184082 11.0852 0.184082 24.3186C0.184082 37.552 10.9507 48.3186 24.1841 48.3186C37.4175 48.3186 48.1841 37.552 48.1841 24.3186C48.1841 11.0852 37.4175 0.318604 24.1841 0.318604ZM24.1841 46.2316C12.1006 46.2316 2.27104 36.4021 2.27104 24.3186C2.27104 12.2351 12.1006 2.40556 24.1841 2.40556C36.2676 2.40556 46.0971 12.2351 46.0971 24.3186C46.0971 36.4021 36.2676 46.2316 24.1841 46.2316Z" fill=""/>
<path d="M32.5319 17.0143C29.655 17.0143 27.3145 19.3548 27.3145 22.2316C27.3145 22.8076 27.782 23.2751 28.358 23.2751C28.934 23.2751 29.4015 22.8076 29.4015 22.2316C29.4015 20.5057 30.806 19.1012 32.5319 19.1012C34.2578 19.1012 35.6623 20.5057 35.6623 22.2316C35.6623 22.8076 36.1298 23.2751 36.7058 23.2751C37.2818 23.2751 37.7493 22.8076 37.7493 22.2316C37.7493 19.3548 35.4088 17.0143 32.5319 17.0143Z" fill=""/>
<path d="M18.9667 22.2316C18.9667 22.8076 19.4341 23.2751 20.0101 23.2751C20.5861 23.2751 21.0536 22.8076 21.0536 22.2316C21.0536 19.3548 18.7131 17.0143 15.8362 17.0143C12.9594 17.0143 10.6188 19.3548 10.6188 22.2316C10.6188 22.8076 11.0863 23.2751 11.6623 23.2751C12.2383 23.2751 12.7058 22.8076 12.7058 22.2316C12.7058 20.5057 14.1103 19.1012 15.8362 19.1012C17.5621 19.1012 18.9667 20.5057 18.9667 22.2316Z" fill=""/>
</g>
<defs>
<clipPath id="clip0">
<rect width="48" height="48" fill="" transform="translate(0.184082 0.318604)"/>
</clipPath>
</defs>
</svg>
