<svg width="38" height="38" viewBox="0 0 38 38" fill="" xmlns="http://www.w3.org/2000/svg">
<path d="M29.6583 25.2496C29.6331 25.1953 29.6096 25.1503 29.5878 25.1143C29.2271 24.4646 28.5377 23.6671 27.5201 22.7217L27.4986 22.7L27.4879 22.6894L27.477 22.6785H27.4661C27.0042 22.2383 26.7118 21.9422 26.5893 21.7907C26.3652 21.502 26.315 21.2098 26.4375 20.9137C26.524 20.69 26.849 20.2175 27.4118 19.4957C27.7078 19.1132 27.9423 18.8066 28.1154 18.5756C29.364 16.9156 29.9054 15.8548 29.7393 15.3929L29.6748 15.2849C29.6314 15.22 29.5196 15.1605 29.3394 15.1063C29.1587 15.0522 28.9279 15.0432 28.6463 15.0793L25.5287 15.1008C25.4782 15.0829 25.406 15.0846 25.3121 15.1063C25.2182 15.128 25.1713 15.1389 25.1713 15.1389L25.117 15.166L25.074 15.1985C25.0379 15.2201 24.9982 15.2579 24.9548 15.3121C24.9117 15.366 24.8757 15.4294 24.8469 15.5015C24.5074 16.3748 24.1215 17.1867 23.6884 17.9372C23.4213 18.3847 23.1761 18.7726 22.9521 19.101C22.7284 19.4293 22.5408 19.6711 22.3894 19.8262C22.2377 19.9814 22.1008 20.1057 21.9779 20.1996C21.8552 20.2936 21.7615 20.3333 21.6966 20.3188C21.6316 20.3042 21.5703 20.2898 21.5123 20.2754C21.4114 20.2104 21.3302 20.122 21.2689 20.0102C21.2074 19.8983 21.166 19.7576 21.1444 19.588C21.1228 19.4182 21.1101 19.2723 21.1064 19.1495C21.1031 19.0269 21.1046 18.8535 21.1119 18.6298C21.1195 18.406 21.1228 18.2546 21.1228 18.1752C21.1228 17.9009 21.1282 17.6032 21.1389 17.2821C21.1498 16.9609 21.1587 16.7064 21.1661 16.519C21.1734 16.3313 21.1768 16.1328 21.1768 15.9235C21.1768 15.7142 21.1641 15.5501 21.1389 15.4309C21.114 15.3119 21.0758 15.1964 21.0255 15.0845C20.9749 14.9726 20.9008 14.8861 20.8036 14.8247C20.7062 14.7633 20.5851 14.7146 20.441 14.6785C20.0584 14.5919 19.5713 14.5451 18.9794 14.5378C17.6371 14.5234 16.7746 14.6101 16.3921 14.7977C16.2406 14.877 16.1034 14.9853 15.9808 15.1224C15.8509 15.2812 15.8327 15.3679 15.9265 15.3821C16.3596 15.447 16.6662 15.6022 16.8467 15.8476L16.9117 15.9776C16.9623 16.0714 17.0128 16.2374 17.0633 16.4756C17.1138 16.7137 17.1464 16.9771 17.1607 17.2656C17.1967 17.7926 17.1967 18.2436 17.1607 18.6188C17.1246 18.9942 17.0904 19.2864 17.0579 19.4957C17.0253 19.705 16.9766 19.8746 16.9117 20.0045C16.8467 20.1344 16.8034 20.2138 16.7817 20.2426C16.7601 20.2714 16.742 20.2896 16.7277 20.2967C16.6339 20.3327 16.5363 20.351 16.4353 20.351C16.3342 20.351 16.2116 20.3004 16.0673 20.1993C15.923 20.0982 15.7733 19.9594 15.6181 19.7825C15.4629 19.6057 15.2879 19.3585 15.0929 19.041C14.8982 18.7235 14.6961 18.3482 14.4868 17.9152L14.3136 17.6012C14.2053 17.3991 14.0575 17.105 13.8698 16.719C13.6821 16.3328 13.5161 15.9592 13.3718 15.5984C13.3142 15.4468 13.2275 15.3314 13.1121 15.252L13.0579 15.2195C13.0219 15.1906 12.964 15.16 12.8847 15.1274C12.8053 15.0949 12.7224 15.0715 12.6357 15.0571L9.66953 15.0787C9.36642 15.0787 9.16076 15.1473 9.05247 15.2845L9.00913 15.3494C8.98748 15.3855 8.97656 15.4432 8.97656 15.5226C8.97656 15.602 8.99821 15.6995 9.04155 15.8149C9.47456 16.8326 9.94545 17.814 10.4542 18.7594C10.963 19.7049 11.4051 20.4664 11.7803 21.0434C12.1555 21.6209 12.538 22.1658 12.9278 22.6781C13.3175 23.1905 13.5755 23.5189 13.7017 23.6632C13.8281 23.8077 13.9274 23.9158 13.9995 23.988L14.2702 24.2477C14.4434 24.421 14.6978 24.6284 15.0334 24.8702C15.369 25.112 15.7407 25.3502 16.1484 25.5849C16.5563 25.8193 17.0307 26.0105 17.572 26.1584C18.1133 26.3065 18.6401 26.3659 19.1526 26.3372H20.3975C20.65 26.3154 20.8413 26.236 20.9713 26.099L21.0144 26.0447C21.0434 26.0017 21.0705 25.9348 21.0955 25.8447C21.1208 25.7545 21.1334 25.6551 21.1334 25.547C21.126 25.2367 21.1496 24.9571 21.2036 24.7081C21.2576 24.4593 21.3191 24.2716 21.3879 24.1452C21.4566 24.019 21.5342 23.9124 21.6205 23.8261C21.707 23.7395 21.7687 23.6871 21.8049 23.669C21.8408 23.6508 21.8695 23.6385 21.8912 23.6311C22.0644 23.5734 22.2682 23.6293 22.503 23.7991C22.7376 23.9687 22.9576 24.1781 23.1634 24.427C23.3691 24.6761 23.6163 24.9556 23.9049 25.2658C24.1937 25.5762 24.4462 25.8069 24.6627 25.9587L24.8791 26.0886C25.0236 26.1753 25.2113 26.2547 25.4423 26.3268C25.6728 26.399 25.8748 26.417 26.0483 26.381L28.8195 26.3377C29.0936 26.3377 29.3069 26.2923 29.4582 26.2023C29.6098 26.1121 29.6998 26.0127 29.7289 25.9046C29.7579 25.7964 29.7594 25.6736 29.7344 25.5364C29.7087 25.3994 29.6834 25.3037 29.6583 25.2496Z" fill=""/>
<path fill-rule="evenodd" clip-rule="evenodd" d="M19.3726 36.9674C29.0375 36.9674 36.8726 29.1324 36.8726 19.4674C36.8726 9.80242 29.0375 1.96741 19.3726 1.96741C9.70758 1.96741 1.87256 9.80242 1.87256 19.4674C1.87256 29.1324 9.70758 36.9674 19.3726 36.9674ZM19.3726 37.9674C29.5898 37.9674 37.8726 29.6847 37.8726 19.4674C37.8726 9.25014 29.5898 0.967407 19.3726 0.967407C9.15529 0.967407 0.872559 9.25014 0.872559 19.4674C0.872559 29.6847 9.15529 37.9674 19.3726 37.9674Z" fill=""/>
</svg>
